<svg width="30" height="30" viewBox="0 0 30 30" fill="none" xmlns="http://www.w3.org/2000/svg">
<path d="M14.996 7.30355C10.7369 7.30355 7.29966 10.7409 7.29966 15C7.29966 19.2591 10.7369 22.6965 14.996 22.6965C19.255 22.6965 22.6923 19.2591 22.6923 15C22.6923 10.7409 19.255 7.30355 14.996 7.30355ZM14.996 20.0021C12.2417 20.0021 9.99393 17.7544 9.99393 15C9.99393 12.2456 12.2417 9.99787 14.996 9.99787C17.7503 9.99787 19.998 12.2456 19.998 15C19.998 17.7544 17.7503 20.0021 14.996 20.0021ZM23.0075 5.19462C22.0131 5.19462 21.2101 5.99767 21.2101 6.99209C21.2101 7.98651 22.0131 8.78955 23.0075 8.78955C24.0019 8.78955 24.8049 7.99026 24.8049 6.99209C24.8052 6.75596 24.7589 6.52209 24.6687 6.30388C24.5785 6.08567 24.4461 5.8874 24.2791 5.72043C24.1122 5.55346 23.9139 5.42107 23.6957 5.33085C23.4775 5.24062 23.2436 5.19433 23.0075 5.19462V5.19462ZM29.9983 15C29.9983 12.9286 30.0171 10.876 29.9008 8.80832C29.7844 6.40669 29.2366 4.27525 27.4804 2.51907C25.7205 0.759128 23.5929 0.215011 21.1913 0.098682C19.1199 -0.0176466 17.0673 0.00111617 14.9997 0.00111617C12.9284 0.00111617 10.8758 -0.0176466 8.80815 0.098682C6.40658 0.215011 4.27517 0.762881 2.51902 2.51907C0.759114 4.27901 0.215007 6.40669 0.0986802 8.80832C-0.0176462 10.8797 0.00111615 12.9324 0.00111615 15C0.00111615 17.0676 -0.0176462 19.124 0.0986802 21.1917C0.215007 23.5933 0.762867 25.7247 2.51902 27.4809C4.27893 29.2409 6.40658 29.785 8.80815 29.9013C10.8795 30.0176 12.9321 29.9989 14.9997 29.9989C17.0711 29.9989 19.1237 30.0176 21.1913 29.9013C23.5929 29.785 25.7243 29.2371 27.4804 27.4809C29.2403 25.721 29.7844 23.5933 29.9008 21.1917C30.0208 19.124 29.9983 17.0714 29.9983 15V15ZM26.6962 23.8485C26.4222 24.5314 26.092 25.0418 25.5629 25.5671C25.0338 26.0962 24.5272 26.4265 23.8443 26.7004C21.8705 27.4847 17.1837 27.3083 14.996 27.3083C12.8083 27.3083 8.1177 27.4847 6.1439 26.7042C5.46095 26.4302 4.95062 26.1 4.42527 25.5709C3.89618 25.0418 3.56596 24.5352 3.29203 23.8522C2.51152 21.8746 2.68788 17.1877 2.68788 15C2.68788 12.8123 2.51152 8.1216 3.29203 6.14777C3.56596 5.46481 3.89618 4.95446 4.42527 4.42911C4.95437 3.90375 5.46095 3.56978 6.1439 3.29584C8.1177 2.51532 12.8083 2.69168 14.996 2.69168C17.1837 2.69168 21.8742 2.51532 23.848 3.29584C24.531 3.56978 25.0413 3.9 25.5667 4.42911C26.0958 4.95822 26.426 5.46481 26.6999 6.14777C27.4804 8.1216 27.3041 12.8123 27.3041 15C27.3041 17.1877 27.4804 21.8746 26.6962 23.8485Z" fill="black"/>
</svg>
