<svg width="35" height="30" viewBox="0 0 35 30" fill="none" xmlns="http://www.w3.org/2000/svg">
<path d="M17.5 0C8.01325 0 0 6.8685 0 15C0 23.1315 8.01325 30 17.5 30C26.9868 30 35 23.1315 35 15C35 6.8685 26.9868 0 17.5 0ZM17.5 7.5C20.5222 7.5 22.75 9.408 22.75 12C22.75 14.592 20.5222 16.5 17.5 16.5C14.4795 16.5 12.25 14.592 12.25 12C12.25 9.408 14.4795 7.5 17.5 7.5ZM8.5645 22.158C10.1343 20.178 12.7522 18.858 15.75 18.858H19.25C22.2495 18.858 24.8658 20.178 26.4355 22.158C24.199 24.21 21.0263 25.5 17.5 25.5C13.9737 25.5 10.801 24.21 8.5645 22.158Z" fill="#233041"/>
</svg>
